<mxfile host="app.diagrams.net" agent="Mozilla/5.0 (Macintosh; Intel Mac OS X 10_15_7) AppleWebKit/537.36 (KHTML, like Gecko) Chrome/136.0.0.0 YaBrowser/25.6.0.0 Safari/537.36" version="26.1.0">
  <diagram name="YDB Query Execution" id="VA4aEMhLpSQhZLtYT9ai">
    <mxGraphModel dx="1853" dy="696" grid="1" gridSize="10" guides="1" tooltips="1" connect="1" arrows="1" fold="1" page="1" pageScale="1" pageWidth="827" pageHeight="1169" math="0" shadow="0">
      <root>
        <mxCell id="0" />
        <mxCell id="1" parent="0" />
        <mxCell id="M2VwiEWQkAIFONeX4CcQ-71" value="YDB Node" style="dashed=1;rounded=0;whiteSpace=wrap;html=1;strokeColor=#000000;verticalAlign=top;" vertex="1" parent="1">
          <mxGeometry x="-80" y="352.5" width="210" height="175" as="geometry" />
        </mxCell>
        <mxCell id="M2VwiEWQkAIFONeX4CcQ-57" value="YDB Node" style="dashed=1;rounded=0;whiteSpace=wrap;html=1;strokeColor=#000000;verticalAlign=top;" vertex="1" parent="1">
          <mxGeometry x="-80" y="157.5" width="210" height="175" as="geometry" />
        </mxCell>
        <mxCell id="M2VwiEWQkAIFONeX4CcQ-46" value="YDB Node (Entrypoint)" style="dashed=1;rounded=0;whiteSpace=wrap;html=1;strokeColor=#000000;verticalAlign=top;" vertex="1" parent="1">
          <mxGeometry x="-350" y="170" width="200" height="345" as="geometry" />
        </mxCell>
        <mxCell id="M2VwiEWQkAIFONeX4CcQ-19" value="Client Application" style="rounded=0;whiteSpace=wrap;html=1;fillColor=#dae8fc;strokeColor=#6c8ebf;verticalAlign=top;" vertex="1" parent="1">
          <mxGeometry x="-600" y="210" width="160" height="190" as="geometry" />
        </mxCell>
        <mxCell id="M2VwiEWQkAIFONeX4CcQ-39" value="YDB SDK / Driver" style="rounded=0;whiteSpace=wrap;html=1;fillColor=#FFFFFF;strokeColor=#6c8ebf;verticalAlign=top;" vertex="1" parent="1">
          <mxGeometry x="-585" y="250" width="130" height="130" as="geometry" />
        </mxCell>
        <mxCell id="M2VwiEWQkAIFONeX4CcQ-51" style="edgeStyle=orthogonalEdgeStyle;rounded=0;orthogonalLoop=1;jettySize=auto;html=1;exitX=1;exitY=0.5;exitDx=0;exitDy=0;entryX=0;entryY=0.5;entryDx=0;entryDy=0;" edge="1" parent="1" source="M2VwiEWQkAIFONeX4CcQ-44" target="M2VwiEWQkAIFONeX4CcQ-49">
          <mxGeometry relative="1" as="geometry" />
        </mxCell>
        <mxCell id="M2VwiEWQkAIFONeX4CcQ-44" value="Session" style="rounded=0;whiteSpace=wrap;html=1;fillColor=#dae8fc;strokeColor=#6c8ebf;" vertex="1" parent="1">
          <mxGeometry x="-570" y="290" width="100" height="30" as="geometry" />
        </mxCell>
        <mxCell id="M2VwiEWQkAIFONeX4CcQ-45" value="Session" style="rounded=0;whiteSpace=wrap;html=1;fillColor=#dae8fc;strokeColor=#6c8ebf;" vertex="1" parent="1">
          <mxGeometry x="-570" y="330" width="100" height="30" as="geometry" />
        </mxCell>
        <mxCell id="M2VwiEWQkAIFONeX4CcQ-54" style="edgeStyle=orthogonalEdgeStyle;rounded=0;orthogonalLoop=1;jettySize=auto;html=1;exitX=0.5;exitY=0;exitDx=0;exitDy=0;entryX=0.5;entryY=1;entryDx=0;entryDy=0;dashed=1;endArrow=none;startFill=0;" edge="1" parent="1" source="M2VwiEWQkAIFONeX4CcQ-49" target="M2VwiEWQkAIFONeX4CcQ-53">
          <mxGeometry relative="1" as="geometry" />
        </mxCell>
        <mxCell id="M2VwiEWQkAIFONeX4CcQ-78" style="edgeStyle=orthogonalEdgeStyle;rounded=0;orthogonalLoop=1;jettySize=auto;html=1;exitX=0.5;exitY=1;exitDx=0;exitDy=0;entryX=0.5;entryY=0;entryDx=0;entryDy=0;" edge="1" parent="1" source="M2VwiEWQkAIFONeX4CcQ-49" target="M2VwiEWQkAIFONeX4CcQ-55">
          <mxGeometry relative="1" as="geometry" />
        </mxCell>
        <mxCell id="M2VwiEWQkAIFONeX4CcQ-49" value="Query Parser &amp; Optimizer" style="rounded=0;whiteSpace=wrap;html=1;fillColor=#dae8fc;strokeColor=#6c8ebf;" vertex="1" parent="1">
          <mxGeometry x="-315" y="285" width="130" height="40" as="geometry" />
        </mxCell>
        <mxCell id="M2VwiEWQkAIFONeX4CcQ-53" value="Query Plan Cache" style="rounded=0;whiteSpace=wrap;html=1;fillColor=#dae8fc;strokeColor=#6c8ebf;" vertex="1" parent="1">
          <mxGeometry x="-315" y="210" width="130" height="40" as="geometry" />
        </mxCell>
        <mxCell id="M2VwiEWQkAIFONeX4CcQ-80" style="edgeStyle=orthogonalEdgeStyle;rounded=0;orthogonalLoop=1;jettySize=auto;html=1;exitX=1;exitY=0.5;exitDx=0;exitDy=0;entryX=0;entryY=0.5;entryDx=0;entryDy=0;" edge="1" parent="1" source="M2VwiEWQkAIFONeX4CcQ-55" target="M2VwiEWQkAIFONeX4CcQ-63">
          <mxGeometry relative="1" as="geometry" />
        </mxCell>
        <mxCell id="M2VwiEWQkAIFONeX4CcQ-81" style="edgeStyle=orthogonalEdgeStyle;rounded=0;orthogonalLoop=1;jettySize=auto;html=1;exitX=1;exitY=0.5;exitDx=0;exitDy=0;entryX=0;entryY=0.5;entryDx=0;entryDy=0;" edge="1" parent="1" source="M2VwiEWQkAIFONeX4CcQ-55" target="M2VwiEWQkAIFONeX4CcQ-73">
          <mxGeometry relative="1" as="geometry" />
        </mxCell>
        <mxCell id="M2VwiEWQkAIFONeX4CcQ-85" style="edgeStyle=orthogonalEdgeStyle;rounded=0;orthogonalLoop=1;jettySize=auto;html=1;exitX=0.5;exitY=1;exitDx=0;exitDy=0;entryX=0.5;entryY=0;entryDx=0;entryDy=0;" edge="1" parent="1" source="M2VwiEWQkAIFONeX4CcQ-55" target="M2VwiEWQkAIFONeX4CcQ-83">
          <mxGeometry relative="1" as="geometry">
            <Array as="points">
              <mxPoint x="-250" y="435" />
              <mxPoint x="-295" y="435" />
            </Array>
          </mxGeometry>
        </mxCell>
        <mxCell id="M2VwiEWQkAIFONeX4CcQ-86" style="edgeStyle=orthogonalEdgeStyle;rounded=0;orthogonalLoop=1;jettySize=auto;html=1;exitX=0.5;exitY=1;exitDx=0;exitDy=0;entryX=0.5;entryY=0;entryDx=0;entryDy=0;" edge="1" parent="1" source="M2VwiEWQkAIFONeX4CcQ-55" target="M2VwiEWQkAIFONeX4CcQ-84">
          <mxGeometry relative="1" as="geometry">
            <Array as="points">
              <mxPoint x="-250" y="435" />
              <mxPoint x="-205" y="435" />
            </Array>
          </mxGeometry>
        </mxCell>
        <mxCell id="M2VwiEWQkAIFONeX4CcQ-55" value="Query Execution Engine" style="rounded=0;whiteSpace=wrap;html=1;fillColor=#dae8fc;strokeColor=#6c8ebf;" vertex="1" parent="1">
          <mxGeometry x="-315" y="375" width="130" height="40" as="geometry" />
        </mxCell>
        <mxCell id="M2VwiEWQkAIFONeX4CcQ-56" value="(GRpc Call)" style="text;html=1;strokeColor=none;fillColor=none;align=center;verticalAlign=middle;" vertex="1" connectable="0" parent="1">
          <mxGeometry x="-418.5" y="320" width="50" as="geometry" />
        </mxCell>
        <mxCell id="M2VwiEWQkAIFONeX4CcQ-69" style="edgeStyle=orthogonalEdgeStyle;rounded=0;orthogonalLoop=1;jettySize=auto;html=1;exitX=0.5;exitY=0;exitDx=0;exitDy=0;entryX=0.5;entryY=1;entryDx=0;entryDy=0;" edge="1" parent="1" source="M2VwiEWQkAIFONeX4CcQ-63" target="M2VwiEWQkAIFONeX4CcQ-68">
          <mxGeometry relative="1" as="geometry" />
        </mxCell>
        <mxCell id="M2VwiEWQkAIFONeX4CcQ-63" value="Compute&lt;br&gt;Task" style="rounded=0;whiteSpace=wrap;html=1;fillColor=#dae8fc;strokeColor=#6c8ebf;" vertex="1" parent="1">
          <mxGeometry x="-60" y="272.5" width="70" height="40" as="geometry" />
        </mxCell>
        <mxCell id="M2VwiEWQkAIFONeX4CcQ-70" style="edgeStyle=orthogonalEdgeStyle;rounded=0;orthogonalLoop=1;jettySize=auto;html=1;exitX=0.5;exitY=0;exitDx=0;exitDy=0;entryX=0.5;entryY=1;entryDx=0;entryDy=0;" edge="1" parent="1" source="M2VwiEWQkAIFONeX4CcQ-64" target="M2VwiEWQkAIFONeX4CcQ-67">
          <mxGeometry relative="1" as="geometry" />
        </mxCell>
        <mxCell id="M2VwiEWQkAIFONeX4CcQ-64" value="Compute&lt;br&gt;Task" style="rounded=0;whiteSpace=wrap;html=1;fillColor=#dae8fc;strokeColor=#6c8ebf;" vertex="1" parent="1">
          <mxGeometry x="40" y="272.5" width="70" height="40" as="geometry" />
        </mxCell>
        <mxCell id="M2VwiEWQkAIFONeX4CcQ-67" value="Columnshards" style="rounded=0;whiteSpace=wrap;html=1;fillColor=#d5e8d4;strokeColor=#82b366;" vertex="1" parent="1">
          <mxGeometry x="30" y="192.5" width="90" height="40" as="geometry" />
        </mxCell>
        <mxCell id="M2VwiEWQkAIFONeX4CcQ-68" value="Datashards" style="rounded=0;whiteSpace=wrap;html=1;fillColor=#d5e8d4;strokeColor=#82b366;" vertex="1" parent="1">
          <mxGeometry x="-70" y="192.5" width="90" height="40" as="geometry" />
        </mxCell>
        <mxCell id="M2VwiEWQkAIFONeX4CcQ-72" style="edgeStyle=orthogonalEdgeStyle;rounded=0;orthogonalLoop=1;jettySize=auto;html=1;exitX=0.5;exitY=0;exitDx=0;exitDy=0;entryX=0.5;entryY=1;entryDx=0;entryDy=0;" edge="1" parent="1" source="M2VwiEWQkAIFONeX4CcQ-73" target="M2VwiEWQkAIFONeX4CcQ-77">
          <mxGeometry relative="1" as="geometry" />
        </mxCell>
        <mxCell id="M2VwiEWQkAIFONeX4CcQ-73" value="Compute&lt;br&gt;Task" style="rounded=0;whiteSpace=wrap;html=1;fillColor=#dae8fc;strokeColor=#6c8ebf;" vertex="1" parent="1">
          <mxGeometry x="-60" y="467.5" width="70" height="40" as="geometry" />
        </mxCell>
        <mxCell id="M2VwiEWQkAIFONeX4CcQ-74" style="edgeStyle=orthogonalEdgeStyle;rounded=0;orthogonalLoop=1;jettySize=auto;html=1;exitX=0.5;exitY=0;exitDx=0;exitDy=0;entryX=0.5;entryY=1;entryDx=0;entryDy=0;" edge="1" parent="1" source="M2VwiEWQkAIFONeX4CcQ-75" target="M2VwiEWQkAIFONeX4CcQ-76">
          <mxGeometry relative="1" as="geometry" />
        </mxCell>
        <mxCell id="M2VwiEWQkAIFONeX4CcQ-75" value="Compute&lt;br&gt;Task" style="rounded=0;whiteSpace=wrap;html=1;fillColor=#dae8fc;strokeColor=#6c8ebf;" vertex="1" parent="1">
          <mxGeometry x="40" y="467.5" width="70" height="40" as="geometry" />
        </mxCell>
        <mxCell id="M2VwiEWQkAIFONeX4CcQ-76" value="Columnshards" style="rounded=0;whiteSpace=wrap;html=1;fillColor=#d5e8d4;strokeColor=#82b366;" vertex="1" parent="1">
          <mxGeometry x="30" y="387.5" width="90" height="40" as="geometry" />
        </mxCell>
        <mxCell id="M2VwiEWQkAIFONeX4CcQ-77" value="Datashards" style="rounded=0;whiteSpace=wrap;html=1;fillColor=#d5e8d4;strokeColor=#82b366;" vertex="1" parent="1">
          <mxGeometry x="-70" y="387.5" width="90" height="40" as="geometry" />
        </mxCell>
        <mxCell id="M2VwiEWQkAIFONeX4CcQ-79" value="Query Plan" style="text;html=1;strokeColor=none;fillColor=none;align=center;verticalAlign=middle;" vertex="1" connectable="0" parent="1">
          <mxGeometry x="-240" y="337.5" width="60" height="15" as="geometry" />
        </mxCell>
        <mxCell id="M2VwiEWQkAIFONeX4CcQ-82" value="YQL" style="text;html=1;strokeColor=none;fillColor=none;align=center;verticalAlign=middle;" vertex="1" connectable="0" parent="1">
          <mxGeometry x="-420" y="292.5" width="53" as="geometry" />
        </mxCell>
        <mxCell id="M2VwiEWQkAIFONeX4CcQ-83" value="Compute&lt;br&gt;Task" style="rounded=0;whiteSpace=wrap;html=1;fillColor=#dae8fc;strokeColor=#6c8ebf;" vertex="1" parent="1">
          <mxGeometry x="-330" y="452.5" width="70" height="40" as="geometry" />
        </mxCell>
        <mxCell id="M2VwiEWQkAIFONeX4CcQ-84" value="Compute&lt;br&gt;Task" style="rounded=0;whiteSpace=wrap;html=1;fillColor=#dae8fc;strokeColor=#6c8ebf;" vertex="1" parent="1">
          <mxGeometry x="-240" y="452.5" width="70" height="40" as="geometry" />
        </mxCell>
      </root>
    </mxGraphModel>
  </diagram>
</mxfile>
